<?xml version="1.0" encoding="utf-8"?>
<!-- Generator: Adobe Illustrator 27.5.0, SVG Export Plug-In . SVG Version: 6.00 Build 0)  -->
<svg version="1.1" xmlns="http://www.w3.org/2000/svg" xmlns:xlink="http://www.w3.org/1999/xlink" x="0px" y="0px"
viewBox="0 0 500 500" style="enable-background:new 0 0 500 500;" xml:space="preserve">
<g id="Background_Simple">
	<g>
		<path style="fill:#92E3A9;" d="M399.697,403.334c15.409-10.159,28.423-23.327,38.245-40.421
			c57.157-99.474,44.244-246.165-65.836-309.062c-50.874-29.068-124.12-47.473-179.099-17.613
			c-44.596,24.221-71.94,69.816-94.553,111.299c-14.223,26.092-25.934,54.171-43.451,78.58
			c-22.722,31.661-47.736,73.941-22.48,110.72c34.406,50.105,99.396,72.984,158.331,88.045
			c63.941,16.341,135.833,18.66,194.897-13.212C390.532,409.089,395.187,406.307,399.697,403.334z"/>
		<path style="opacity:0.7;fill:#FFFFFF;" d="M399.697,403.334c15.409-10.159,28.423-23.327,38.245-40.421
			c57.157-99.474,44.244-246.165-65.836-309.062c-50.874-29.068-124.12-47.473-179.099-17.613
			c-44.596,24.221-71.94,69.816-94.553,111.299c-14.223,26.092-25.934,54.171-43.451,78.58
			c-22.722,31.661-47.736,73.941-22.48,110.72c34.406,50.105,99.396,72.984,158.331,88.045
			c63.941,16.341,135.833,18.66,194.897-13.212C390.532,409.089,395.187,406.307,399.697,403.334z"/>
	</g>
</g>
<g id="Floor">
	<g>
		
			<line style="fill:none;stroke:#263238;stroke-linecap:round;stroke-linejoin:round;stroke-miterlimit:10;" x1="466" y1="427" x2="479" y2="427"/>
		
			<line style="fill:none;stroke:#263238;stroke-linecap:round;stroke-linejoin:round;stroke-miterlimit:10;" x1="158" y1="427" x2="457" y2="427"/>
		
			<line style="fill:none;stroke:#263238;stroke-linecap:round;stroke-linejoin:round;stroke-miterlimit:10;" x1="20" y1="427" x2="151" y2="427"/>
	</g>
</g>
<g id="Barrier">
	<g>
		<g>
			<path style="fill:none;stroke:#263238;stroke-width:2;stroke-linecap:round;stroke-linejoin:round;stroke-miterlimit:10;" d="
				M120.631,345.942c0,0,20.021,33.768,56.908,35.229c39.1,1.549,58.844-32.519,58.844-32.519"/>
			<path style="fill:none;stroke:#263238;stroke-width:2;stroke-linecap:round;stroke-linejoin:round;stroke-miterlimit:10;" d="
				M241.416,345.942c0,0,20.021,33.768,56.908,35.229c39.1,1.549,58.844-32.519,58.844-32.519"/>
		</g>
		<g>
			<path style="fill:#FFFFFF;stroke:#263238;stroke-linecap:round;stroke-linejoin:round;stroke-miterlimit:10;" d="
				M133.786,432.649c0,1.32-6.686,2.389-14.933,2.389c-8.247,0-14.933-1.07-14.933-2.389c0-1.32,6.686-2.389,14.933-2.389
				C127.1,430.26,133.786,431.329,133.786,432.649z"/>
			
				<rect x="115" y="337" style="fill:#FFFFFF;stroke:#263238;stroke-linecap:round;stroke-linejoin:round;stroke-miterlimit:10;" width="8" height="94"/>
		</g>
		<g>
			<path style="fill:#FFFFFF;stroke:#263238;stroke-linecap:round;stroke-linejoin:round;stroke-miterlimit:10;" d="M253.12,432.649
				c0,1.32-6.686,2.389-14.933,2.389c-8.248,0-14.933-1.07-14.933-2.389c0-1.32,6.686-2.389,14.933-2.389
				C246.434,430.26,253.12,431.329,253.12,432.649z"/>
			
				<rect x="234.333" y="337" style="fill:#FFFFFF;stroke:#263238;stroke-linecap:round;stroke-linejoin:round;stroke-miterlimit:10;" width="8" height="94"/>
		</g>
		<g>
			<path style="fill:#FFFFFF;stroke:#263238;stroke-linecap:round;stroke-linejoin:round;stroke-miterlimit:10;" d="
				M372.453,432.649c0,1.32-6.686,2.389-14.933,2.389s-14.933-1.07-14.933-2.389c0-1.32,6.686-2.389,14.933-2.389
				S372.453,431.329,372.453,432.649z"/>
			
				<rect x="353.667" y="337" style="fill:#FFFFFF;stroke:#263238;stroke-linecap:round;stroke-linejoin:round;stroke-miterlimit:10;" width="8" height="94"/>
		</g>
	</g>
</g>
<g id="Plant">
	<g>
		<g>
			
				<line style="fill:none;stroke:#263238;stroke-width:2;stroke-miterlimit:10;" x1="46.503" y1="289.173" x2="57.96" y2="398.961"/>
			<g>
				<g>
					
						<line style="fill:none;stroke:#263238;stroke-width:2;stroke-miterlimit:10;" x1="56.114" y1="377.951" x2="50.919" y2="372.464"/>
					<path style="fill:#92E3A9;stroke:#263238;stroke-miterlimit:10;" d="M52.498,374.108c0,0,0.149-2.427-2.067-4.406
						c-1.333-1.191-8.35-4.143-9.016-1.671C40.69,370.719,47.872,375.997,52.498,374.108z"/>
					
						<line style="fill:none;stroke:#263238;stroke-width:0.5;stroke-miterlimit:10;" x1="52.498" y1="374.108" x2="45.818" y2="369.946"/>
				</g>
				<g>
					
						<line style="fill:none;stroke:#263238;stroke-width:2;stroke-miterlimit:10;" x1="57.417" y1="390.437" x2="52.222" y2="384.951"/>
					<path style="fill:#92E3A9;stroke:#263238;stroke-miterlimit:10;" d="M53.801,386.594c0,0,0.149-2.427-2.067-4.406
						c-1.333-1.191-8.35-4.143-9.016-1.671C41.993,383.205,49.175,388.484,53.801,386.594z"/>
					
						<line style="fill:none;stroke:#263238;stroke-width:0.5;stroke-miterlimit:10;" x1="53.801" y1="386.594" x2="47.121" y2="382.431"/>
				</g>
				<g>
					
						<line style="fill:none;stroke:#263238;stroke-width:2;stroke-miterlimit:10;" x1="52.934" y1="347.482" x2="47.74" y2="341.996"/>
					<path style="fill:#92E3A9;stroke:#263238;stroke-miterlimit:10;" d="M49.318,343.64c0,0,0.149-2.427-2.067-4.406
						c-1.333-1.191-8.35-4.143-9.016-1.671C37.51,340.25,44.692,345.529,49.318,343.64z"/>
					
						<line style="fill:none;stroke:#263238;stroke-width:0.5;stroke-miterlimit:10;" x1="49.318" y1="343.64" x2="42.638" y2="339.477"/>
				</g>
				<g>
					
						<line style="fill:none;stroke:#263238;stroke-width:2;stroke-miterlimit:10;" x1="54.237" y1="359.968" x2="49.043" y2="354.482"/>
					<path style="fill:#92E3A9;stroke:#263238;stroke-miterlimit:10;" d="M50.621,356.126c0,0,0.149-2.427-2.067-4.406
						c-1.333-1.191-8.35-4.143-9.016-1.671C38.813,352.737,45.995,358.015,50.621,356.126z"/>
					
						<line style="fill:none;stroke:#263238;stroke-width:0.5;stroke-miterlimit:10;" x1="50.621" y1="356.126" x2="43.941" y2="351.963"/>
				</g>
				<g>
					
						<line style="fill:none;stroke:#263238;stroke-width:2;stroke-miterlimit:10;" x1="50.817" y1="327.199" x2="45.623" y2="321.713"/>
					<path style="fill:#92E3A9;stroke:#263238;stroke-miterlimit:10;" d="M47.201,323.357c0,0,0.149-2.427-2.067-4.406
						c-1.333-1.191-8.35-4.143-9.016-1.671C35.394,319.968,42.576,325.246,47.201,323.357z"/>
					
						<line style="fill:none;stroke:#263238;stroke-width:0.5;stroke-miterlimit:10;" x1="47.201" y1="323.357" x2="40.521" y2="319.194"/>
				</g>
				<g>
					
						<line style="fill:none;stroke:#263238;stroke-width:2;stroke-miterlimit:10;" x1="48.691" y1="306.828" x2="43.497" y2="301.342"/>
					<path style="fill:#92E3A9;stroke:#263238;stroke-miterlimit:10;" d="M45.075,302.986c0,0,0.149-2.427-2.067-4.406
						c-1.333-1.191-8.35-4.143-9.016-1.671C33.268,299.596,40.45,304.875,45.075,302.986z"/>
					
						<line style="fill:none;stroke:#263238;stroke-width:0.5;stroke-miterlimit:10;" x1="45.075" y1="302.986" x2="38.395" y2="298.823"/>
				</g>
				<g>
					
						<line style="fill:none;stroke:#263238;stroke-width:2;stroke-miterlimit:10;" x1="55.241" y1="370.563" x2="59.19" y2="364.122"/>
					<path style="fill:#92E3A9;stroke:#263238;stroke-miterlimit:10;" d="M57.985,366.057c0,0-0.646-2.344,1.113-4.738
						c1.059-1.44,7.315-5.777,8.477-3.497C68.839,360.302,62.901,366.95,57.985,366.057z"/>
					
						<line style="fill:none;stroke:#263238;stroke-width:0.5;stroke-miterlimit:10;" x1="57.985" y1="366.057" x2="64" y2="360.308"/>
				</g>
				<g>
					
						<line style="fill:none;stroke:#263238;stroke-width:2;stroke-miterlimit:10;" x1="51.812" y1="337.706" x2="55.761" y2="331.265"/>
					<path style="fill:#92E3A9;stroke:#263238;stroke-miterlimit:10;" d="M54.556,333.199c0,0-0.646-2.344,1.113-4.738
						c1.059-1.441,7.315-5.777,8.477-3.497C65.41,327.445,59.472,334.093,54.556,333.199z"/>
					
						<line style="fill:none;stroke:#263238;stroke-width:0.5;stroke-miterlimit:10;" x1="54.556" y1="333.199" x2="60.571" y2="327.45"/>
				</g>
				<g>
					
						<line style="fill:none;stroke:#263238;stroke-width:2;stroke-miterlimit:10;" x1="50.305" y1="323.266" x2="54.254" y2="316.826"/>
					<path style="fill:#92E3A9;stroke:#263238;stroke-miterlimit:10;" d="M53.049,318.76c0,0-0.646-2.344,1.113-4.738
						c1.059-1.44,7.315-5.777,8.477-3.497C63.903,313.005,57.965,319.653,53.049,318.76z"/>
					
						<line style="fill:none;stroke:#263238;stroke-width:0.5;stroke-miterlimit:10;" x1="53.049" y1="318.76" x2="59.064" y2="313.011"/>
				</g>
				<g>
					
						<line style="fill:none;stroke:#263238;stroke-width:2;stroke-miterlimit:10;" x1="48.096" y1="302.098" x2="52.045" y2="295.657"/>
					<path style="fill:#92E3A9;stroke:#263238;stroke-miterlimit:10;" d="M50.84,297.591c0,0-0.646-2.344,1.113-4.738
						c1.059-1.44,7.315-5.777,8.477-3.497C61.693,291.837,55.756,298.485,50.84,297.591z"/>
					
						<line style="fill:none;stroke:#263238;stroke-width:0.5;stroke-miterlimit:10;" x1="50.84" y1="297.591" x2="56.855" y2="291.842"/>
					<path style="fill:#92E3A9;stroke:#263238;stroke-miterlimit:10;" d="M46.406,288.563c0,0-0.646-2.344,1.113-4.738
						c1.059-1.44,7.315-5.777,8.477-3.497C57.259,282.809,51.322,289.457,46.406,288.563z"/>
					
						<line style="fill:none;stroke:#263238;stroke-width:0.5;stroke-miterlimit:10;" x1="46.406" y1="288.563" x2="52.421" y2="282.814"/>
					<path style="fill:#92E3A9;stroke:#263238;stroke-miterlimit:10;" d="M46.755,288.811c0,0-2.399,0.397-4.595-1.604
						c-1.321-1.204-4.978-7.88-2.589-8.796C42.17,277.415,48.159,284.016,46.755,288.811z"/>
					
						<line style="fill:none;stroke:#263238;stroke-width:0.5;stroke-miterlimit:10;" x1="46.755" y1="288.811" x2="41.668" y2="282.227"/>
				</g>
			</g>
		</g>
		<g>
			
				<line style="fill:none;stroke:#263238;stroke-width:2;stroke-miterlimit:10;" x1="76.723" y1="304.293" x2="65.329" y2="414.088"/>
			<g>
				<g>
					
						<line style="fill:none;stroke:#263238;stroke-width:2;stroke-miterlimit:10;" x1="67.849" y1="393.147" x2="63.895" y2="386.709"/>
					<path style="fill:#92E3A9;stroke:#263238;stroke-miterlimit:10;" d="M65.101,388.642c0,0,0.645-2.344-1.116-4.737
						c-1.06-1.44-7.318-5.773-8.479-3.492C54.244,382.894,60.186,389.539,65.101,388.642z"/>
					
						<line style="fill:none;stroke:#263238;stroke-width:0.5;stroke-miterlimit:10;" x1="65.101" y1="388.642" x2="59.421" y2="383.193"/>
				</g>
				<g>
					
						<line style="fill:none;stroke:#263238;stroke-width:2;stroke-miterlimit:10;" x1="71.01" y1="362.677" x2="67.057" y2="356.239"/>
					<path style="fill:#92E3A9;stroke:#263238;stroke-miterlimit:10;" d="M68.263,358.172c0,0,0.645-2.344-1.116-4.737
						c-1.06-1.44-7.318-5.773-8.479-3.492C57.406,352.424,63.347,359.069,68.263,358.172z"/>
					
						<line style="fill:none;stroke:#263238;stroke-width:0.5;stroke-miterlimit:10;" x1="68.263" y1="358.172" x2="62.583" y2="352.723"/>
				</g>
				<g>
					
						<line style="fill:none;stroke:#263238;stroke-width:2;stroke-miterlimit:10;" x1="69.715" y1="375.164" x2="65.761" y2="368.725"/>
					<path style="fill:#92E3A9;stroke:#263238;stroke-miterlimit:10;" d="M66.967,370.659c0,0,0.645-2.344-1.116-4.737
						c-1.06-1.44-7.318-5.773-8.479-3.492C56.111,364.911,62.052,371.555,66.967,370.659z"/>
					
						<line style="fill:none;stroke:#263238;stroke-width:0.5;stroke-miterlimit:10;" x1="66.967" y1="370.659" x2="61.287" y2="365.21"/>
				</g>
				<g>
					
						<line style="fill:none;stroke:#263238;stroke-width:2;stroke-miterlimit:10;" x1="73.115" y1="342.393" x2="69.162" y2="335.955"/>
					<path style="fill:#92E3A9;stroke:#263238;stroke-miterlimit:10;" d="M70.368,337.888c0,0,0.645-2.344-1.116-4.737
						c-1.06-1.44-7.318-5.773-8.479-3.492C59.511,332.14,65.452,338.784,70.368,337.888z"/>
					
						<line style="fill:none;stroke:#263238;stroke-width:0.5;stroke-miterlimit:10;" x1="70.368" y1="337.888" x2="64.688" y2="332.439"/>
				</g>
				<g>
					
						<line style="fill:none;stroke:#263238;stroke-width:2;stroke-miterlimit:10;" x1="75.229" y1="322.02" x2="71.276" y2="315.582"/>
					<path style="fill:#92E3A9;stroke:#263238;stroke-miterlimit:10;" d="M72.482,317.516c0,0,0.645-2.344-1.116-4.737
						c-1.06-1.44-7.318-5.773-8.479-3.492C61.625,311.768,67.566,318.412,72.482,317.516z"/>
					
						<line style="fill:none;stroke:#263238;stroke-width:0.5;stroke-miterlimit:10;" x1="72.482" y1="317.516" x2="66.802" y2="312.067"/>
				</g>
				<g>
					
						<line style="fill:none;stroke:#263238;stroke-width:2;stroke-miterlimit:10;" x1="68.515" y1="385.738" x2="73.706" y2="380.249"/>
					<path style="fill:#92E3A9;stroke:#263238;stroke-miterlimit:10;" d="M72.129,381.893c0,0-0.15-2.427,2.065-4.407
						c1.333-1.192,8.347-4.148,9.015-1.677C83.935,378.497,76.756,383.78,72.129,381.893z"/>
					
						<line style="fill:none;stroke:#263238;stroke-width:0.5;stroke-miterlimit:10;" x1="72.129" y1="381.893" x2="79.199" y2="377.506"/>
				</g>
				<g>
					
						<line style="fill:none;stroke:#263238;stroke-width:2;stroke-miterlimit:10;" x1="71.925" y1="352.879" x2="77.116" y2="347.389"/>
					<path style="fill:#92E3A9;stroke:#263238;stroke-miterlimit:10;" d="M75.539,349.034c0,0-0.15-2.427,2.065-4.407
						c1.333-1.192,8.348-4.147,9.015-1.677C87.344,345.638,80.165,350.921,75.539,349.034z"/>
					
						<line style="fill:none;stroke:#263238;stroke-width:0.5;stroke-miterlimit:10;" x1="75.539" y1="349.034" x2="82.609" y2="344.646"/>
				</g>
				<g>
					
						<line style="fill:none;stroke:#263238;stroke-width:2;stroke-miterlimit:10;" x1="73.424" y1="338.438" x2="78.614" y2="332.949"/>
					<path style="fill:#92E3A9;stroke:#263238;stroke-miterlimit:10;" d="M77.037,334.594c0,0-0.15-2.427,2.065-4.407
						c1.333-1.191,8.348-4.148,9.015-1.677C88.843,331.197,81.664,336.48,77.037,334.594z"/>
					
						<line style="fill:none;stroke:#263238;stroke-width:0.5;stroke-miterlimit:10;" x1="77.037" y1="334.594" x2="84.107" y2="330.206"/>
				</g>
				<g>
					
						<line style="fill:none;stroke:#263238;stroke-width:2;stroke-miterlimit:10;" x1="75.62" y1="317.268" x2="80.811" y2="311.779"/>
					<path style="fill:#92E3A9;stroke:#263238;stroke-miterlimit:10;" d="M79.234,313.424c0,0-0.15-2.427,2.065-4.407
						c1.333-1.191,8.348-4.147,9.015-1.677C91.039,310.027,83.86,315.31,79.234,313.424z"/>
					
						<line style="fill:none;stroke:#263238;stroke-width:0.5;stroke-miterlimit:10;" x1="79.234" y1="313.424" x2="86.304" y2="309.036"/>
					<path style="fill:#92E3A9;stroke:#263238;stroke-miterlimit:10;" d="M76.754,303.676c0,0-0.15-2.427,2.065-4.407
						c1.332-1.191,8.347-4.147,9.015-1.677C88.559,300.28,81.38,305.563,76.754,303.676z"/>
					
						<line style="fill:none;stroke:#263238;stroke-width:0.5;stroke-miterlimit:10;" x1="76.754" y1="303.676" x2="83.824" y2="299.289"/>
					<path style="fill:#92E3A9;stroke:#263238;stroke-miterlimit:10;" d="M77.044,303.991c0,0-2.429-0.105-4.166-2.516
						c-1.045-1.45-3.249-8.736-0.722-9.141C74.904,291.894,79.405,299.587,77.044,303.991z"/>
					
						<line style="fill:none;stroke:#263238;stroke-width:0.5;stroke-miterlimit:10;" x1="77.044" y1="303.991" x2="73.422" y2="296.5"/>
				</g>
			</g>
		</g>
		
			<line style="fill:none;stroke:#263238;stroke-width:2;stroke-miterlimit:10;" x1="63.667" y1="259.584" x2="63.667" y2="398.427"/>
		<g>
			<g>
				
					<line style="fill:none;stroke:#263238;stroke-width:2;stroke-miterlimit:10;" x1="63.777" y1="377.55" x2="59.18" y2="371.555"/>
				<path style="fill:#92E3A9;stroke:#263238;stroke-miterlimit:10;" d="M60.579,373.353c0,0,0.4-2.398-1.599-4.597
					c-1.202-1.323-7.875-4.987-8.794-2.598C49.188,368.757,55.783,374.753,60.579,373.353z"/>
				
					<line style="fill:none;stroke:#263238;stroke-width:0.5;stroke-miterlimit:10;" x1="60.579" y1="373.353" x2="54.368" y2="368.52"/>
			</g>
			<g>
				
					<line style="fill:none;stroke:#263238;stroke-width:2;stroke-miterlimit:10;" x1="63.777" y1="351.458" x2="59.18" y2="345.463"/>
				<path style="fill:#92E3A9;stroke:#263238;stroke-miterlimit:10;" d="M60.579,347.261c0,0,0.4-2.398-1.599-4.597
					c-1.202-1.323-7.875-4.987-8.794-2.598C49.188,342.665,55.783,348.66,60.579,347.261z"/>
				
					<line style="fill:none;stroke:#263238;stroke-width:0.5;stroke-miterlimit:10;" x1="60.579" y1="347.261" x2="54.368" y2="342.428"/>
			</g>
			<g>
				
					<line style="fill:none;stroke:#263238;stroke-width:2;stroke-miterlimit:10;" x1="63.777" y1="320.824" x2="59.18" y2="314.829"/>
				<path style="fill:#92E3A9;stroke:#263238;stroke-miterlimit:10;" d="M60.579,316.628c0,0,0.4-2.398-1.599-4.597
					c-1.202-1.323-7.875-4.987-8.794-2.598C49.188,312.031,55.783,318.026,60.579,316.628z"/>
				
					<line style="fill:none;stroke:#263238;stroke-width:0.5;stroke-miterlimit:10;" x1="60.579" y1="316.628" x2="54.368" y2="311.794"/>
			</g>
			<g>
				
					<line style="fill:none;stroke:#263238;stroke-width:2;stroke-miterlimit:10;" x1="63.777" y1="300.432" x2="59.18" y2="294.436"/>
				<path style="fill:#92E3A9;stroke:#263238;stroke-miterlimit:10;" d="M60.579,296.235c0,0,0.4-2.398-1.599-4.597
					c-1.202-1.323-7.875-4.987-8.794-2.598C49.188,291.638,55.783,297.634,60.579,296.235z"/>
				
					<line style="fill:none;stroke:#263238;stroke-width:0.5;stroke-miterlimit:10;" x1="60.579" y1="296.235" x2="54.368" y2="291.401"/>
			</g>
			<g>
				
					<line style="fill:none;stroke:#263238;stroke-width:2;stroke-miterlimit:10;" x1="63.777" y1="279.95" x2="59.18" y2="273.954"/>
				<path style="fill:#92E3A9;stroke:#263238;stroke-miterlimit:10;" d="M60.579,275.753c0,0,0.4-2.398-1.599-4.597
					c-1.202-1.323-7.875-4.987-8.794-2.598C49.188,271.156,55.783,277.152,60.579,275.753z"/>
				
					<line style="fill:none;stroke:#263238;stroke-width:0.5;stroke-miterlimit:10;" x1="60.579" y1="275.753" x2="54.368" y2="270.919"/>
			</g>
			<g>
				
					<line style="fill:none;stroke:#263238;stroke-width:2;stroke-miterlimit:10;" x1="63.676" y1="385.518" x2="68.272" y2="379.522"/>
				<path style="fill:#92E3A9;stroke:#263238;stroke-miterlimit:10;" d="M66.873,381.321c0,0-0.399-2.398,1.599-4.597
					c1.202-1.323,7.875-4.987,8.794-2.598C78.265,376.724,71.67,382.72,66.873,381.321z"/>
				
					<line style="fill:none;stroke:#263238;stroke-width:0.5;stroke-miterlimit:10;" x1="66.873" y1="381.321" x2="73.453" y2="376.227"/>
			</g>
			<g>
				
					<line style="fill:none;stroke:#263238;stroke-width:2;stroke-miterlimit:10;" x1="63.676" y1="344.02" x2="68.272" y2="338.024"/>
				<path style="fill:#92E3A9;stroke:#263238;stroke-miterlimit:10;" d="M66.873,339.823c0,0-0.399-2.398,1.599-4.597
					c1.202-1.323,7.875-4.987,8.794-2.598C78.265,335.226,71.67,341.222,66.873,339.823z"/>
				
					<line style="fill:none;stroke:#263238;stroke-width:0.5;stroke-miterlimit:10;" x1="66.873" y1="339.823" x2="73.453" y2="334.729"/>
			</g>
			<g>
				
					<line style="fill:none;stroke:#263238;stroke-width:2;stroke-miterlimit:10;" x1="63.676" y1="323.538" x2="68.272" y2="317.542"/>
				<path style="fill:#92E3A9;stroke:#263238;stroke-miterlimit:10;" d="M66.873,319.341c0,0-0.399-2.398,1.599-4.597
					c1.202-1.323,7.875-4.987,8.794-2.598C78.265,314.744,71.67,320.74,66.873,319.341z"/>
				
					<line style="fill:none;stroke:#263238;stroke-width:0.5;stroke-miterlimit:10;" x1="66.873" y1="319.341" x2="73.453" y2="314.247"/>
			</g>
			<g>
				
					<line style="fill:none;stroke:#263238;stroke-width:2;stroke-miterlimit:10;" x1="63.676" y1="296.466" x2="68.272" y2="290.47"/>
				<path style="fill:#92E3A9;stroke:#263238;stroke-miterlimit:10;" d="M66.873,292.269c0,0-0.399-2.398,1.599-4.597
					c1.202-1.323,7.875-4.987,8.794-2.598C78.265,287.673,71.67,293.668,66.873,292.269z"/>
				
					<line style="fill:none;stroke:#263238;stroke-width:0.5;stroke-miterlimit:10;" x1="66.873" y1="292.269" x2="73.453" y2="287.175"/>
			</g>
			<g>
				
					<line style="fill:none;stroke:#263238;stroke-width:2;stroke-miterlimit:10;" x1="63.676" y1="275.183" x2="68.272" y2="269.187"/>
				<path style="fill:#92E3A9;stroke:#263238;stroke-miterlimit:10;" d="M66.873,270.986c0,0-0.399-2.398,1.599-4.597
					c1.202-1.323,7.875-4.987,8.794-2.598C78.265,266.389,71.67,272.385,66.873,270.986z"/>
				
					<line style="fill:none;stroke:#263238;stroke-width:0.5;stroke-miterlimit:10;" x1="66.873" y1="270.986" x2="73.453" y2="265.892"/>
				<path style="fill:#92E3A9;stroke:#263238;stroke-miterlimit:10;" d="M63.4,261.546c0,0-0.4-2.398,1.599-4.597
					c1.202-1.322,7.875-4.987,8.794-2.598C74.792,256.949,68.197,262.945,63.4,261.546z"/>
				
					<line style="fill:none;stroke:#263238;stroke-width:0.5;stroke-miterlimit:10;" x1="63.4" y1="261.546" x2="69.98" y2="256.453"/>
				<path style="fill:#92E3A9;stroke:#263238;stroke-miterlimit:10;" d="M63.721,261.829c0,0-2.427,0.146-4.404-2.072
					c-1.189-1.335-4.134-8.355-1.661-9.018C60.345,250.018,65.616,257.206,63.721,261.829z"/>
				
					<line style="fill:none;stroke:#263238;stroke-width:0.5;stroke-miterlimit:10;" x1="63.721" y1="261.829" x2="59.346" y2="254.752"/>
			</g>
		</g>
		<polygon style="fill:#263238;stroke:#263238;stroke-miterlimit:10;" points="69.379,434.437 54.674,434.437 52.836,397.301 
			71.217,397.301 		"/>
	</g>
</g>
<g id="Picture_3">
	<g>
		<polygon style="fill:#263238;stroke:#263238;stroke-linecap:round;stroke-linejoin:round;stroke-miterlimit:10;" points="
			431.86,92.852 351.487,92.852 351.487,220.808 451,220.808 451,92.852 437.088,92.852 		"/>
		
			<rect x="355.096" y="97.493" style="fill:#FFFFFF;stroke:#263238;stroke-linecap:round;stroke-linejoin:round;stroke-miterlimit:10;" width="92.296" height="118.676"/>
		<path style="fill:none;stroke:#263238;stroke-miterlimit:10;" d="M373.586,183.661c1.547-1.433,3.283-2.821,5.229-4.142
			c20.877-14.166,56.293-7.456,68.222-27.587"/>
		<path style="fill:none;stroke:#263238;stroke-miterlimit:10;" d="M361.293,215.681c0,0-2.427-15.909,9.69-29.381"/>
		<path style="fill:none;stroke:#263238;stroke-miterlimit:10;" d="M369.202,150.306c10.183,5.379,23.37,9.196,30.117-1.729
			c7.829-12.675-28.333-35.043-28.333-51.073"/>
		<path style="fill:none;stroke:#263238;stroke-miterlimit:10;" d="M355.329,141.121c0,0,4.645,3.879,11.057,7.619"/>
		<path style="fill:none;stroke:#263238;stroke-miterlimit:10;" d="M403.42,215.681c0,0,13.421-20.877,43.99-15.285"/>
		<path style="fill:none;stroke:#263238;stroke-miterlimit:10;" d="M407.431,195.178c0.059-0.489,0.089-0.987,0.089-1.492
			c0-6.794-5.508-12.302-12.302-12.302s-12.302,5.508-12.302,12.302c0,6.794,5.508,12.302,12.302,12.302
			c4.717,0,8.814-2.655,10.878-6.552"/>
		<path style="fill:none;stroke:#263238;stroke-miterlimit:10;" d="M438.09,177.096c0-3.191-2.587-5.778-5.778-5.778
			s-5.778,2.587-5.778,5.778c0,3.191,2.587,5.778,5.778,5.778S438.09,180.288,438.09,177.096z"/>
		<path style="fill:none;stroke:#263238;stroke-miterlimit:10;" d="M400.252,108.932c0-3.191-2.587-5.778-5.778-5.778
			c-3.191,0-5.778,2.587-5.778,5.778c0,3.191,2.587,5.778,5.778,5.778C397.665,114.71,400.252,112.123,400.252,108.932z"/>
		<path style="fill:none;stroke:#263238;stroke-miterlimit:10;" d="M419.515,150.101c0-3.191-2.587-5.778-5.778-5.778
			c-3.191,0-5.778,2.587-5.778,5.778c0,3.191,2.587,5.779,5.778,5.779C416.928,155.88,419.515,153.293,419.515,150.101z"/>
		<path style="fill:none;stroke:#263238;stroke-miterlimit:10;" d="M438.165,138.113c3.303-0.862,6.327-2.413,8.909-4.492"/>
		<path style="fill:none;stroke:#263238;stroke-miterlimit:10;" d="M416.02,97.422c-4.765,4.362-7.754,10.634-7.754,17.604
			c0,13.177,10.682,23.859,23.859,23.859c0.462,0,0.921-0.013,1.376-0.039"/>
	</g>
</g>
<g id="Picture_2">
	<g>
		<polygon style="fill:#263238;stroke:#263238;stroke-linecap:round;stroke-linejoin:round;stroke-miterlimit:10;" points="
			297.277,257.661 166.825,257.661 166.825,49.978 328.342,49.978 328.342,257.661 305.762,257.661 		"/>
		
			<rect x="172.683" y="57.509" style="fill:#FFFFFF;stroke:#263238;stroke-linecap:round;stroke-linejoin:round;stroke-miterlimit:10;" width="149.803" height="192.62"/>
		<path style="fill:none;stroke:#263238;stroke-miterlimit:10;" d="M202.694,110.271c2.511,2.325,5.328,4.579,8.487,6.722
			c33.885,22.993,91.367,12.102,110.73,44.776"/>
		<path style="fill:none;stroke:#263238;stroke-miterlimit:10;" d="M182.742,58.3c0,0-3.939,25.822,15.727,47.688"/>
		<path style="fill:none;stroke:#263238;stroke-miterlimit:10;" d="M195.578,164.409c16.528-8.73,37.93-14.926,48.882,2.805
			c12.707,20.573-45.986,56.878-45.986,82.896"/>
		<path style="fill:none;stroke:#263238;stroke-miterlimit:10;" d="M173.061,179.316c0,0,7.539-6.296,17.946-12.366"/>
		<path style="fill:none;stroke:#263238;stroke-miterlimit:10;" d="M251.116,58.3c0,0,21.783,33.884,71.399,24.808"/>
		<path style="fill:none;stroke:#263238;stroke-miterlimit:10;" d="M257.627,91.579c0.096,0.794,0.145,1.601,0.145,2.421
			c0,11.028-8.94,19.968-19.968,19.968c-11.028,0-19.968-8.94-19.968-19.968c0-11.028,8.94-19.968,19.968-19.968
			c7.656,0,14.306,4.309,17.657,10.634"/>
		
			<ellipse transform="matrix(0.2541 -0.9672 0.9672 0.2541 105.3281 378.427)" style="fill:none;stroke:#263238;stroke-miterlimit:10;" cx="298.01" cy="120.926" rx="9.379" ry="9.379"/>
		<path style="fill:none;stroke:#263238;stroke-miterlimit:10;" d="M307.511,184.199c5.361,1.398,10.269,3.917,14.46,7.29"/>
		<path style="fill:none;stroke:#263238;stroke-miterlimit:10;" d="M271.567,250.243c-7.734-7.08-12.585-17.259-12.585-28.572
			c0-21.387,17.338-38.725,38.725-38.725c0.75,0,1.494,0.021,2.233,0.063"/>
	</g>
</g>
<g id="Picture_1">
	<g>
		<polygon style="fill:#263238;stroke:#263238;stroke-linecap:round;stroke-linejoin:round;stroke-miterlimit:10;" points="
			64.502,92.852 144.875,92.852 144.875,220.808 45.362,220.808 45.362,92.852 59.274,92.852 		"/>
		
			<rect x="48.971" y="97.493" transform="matrix(-1 -1.224647e-16 1.224647e-16 -1 190.2366 313.6608)" style="fill:#FFFFFF;stroke:#263238;stroke-linecap:round;stroke-linejoin:round;stroke-miterlimit:10;" width="92.296" height="118.676"/>
		<path style="fill:none;stroke:#263238;stroke-miterlimit:10;" d="M122.776,183.661c-1.547-1.433-3.283-2.821-5.229-4.142
			c-20.877-14.166-56.293-7.456-68.222-27.587"/>
		<path style="fill:none;stroke:#263238;stroke-miterlimit:10;" d="M135.068,215.681c0,0,2.427-15.909-9.69-29.381"/>
		<path style="fill:none;stroke:#263238;stroke-miterlimit:10;" d="M127.16,150.306c-10.183,5.379-23.369,9.196-30.117-1.729
			c-7.829-12.675,28.333-35.043,28.333-51.073"/>
		<path style="fill:none;stroke:#263238;stroke-miterlimit:10;" d="M141.033,141.121c0,0-4.645,3.879-11.057,7.619"/>
		<path style="fill:none;stroke:#263238;stroke-miterlimit:10;" d="M92.942,215.681c0,0-13.421-20.877-43.99-15.285"/>
		<path style="fill:none;stroke:#263238;stroke-miterlimit:10;" d="M88.931,195.178c-0.059-0.489-0.09-0.987-0.09-1.492
			c0-6.794,5.508-12.302,12.302-12.302c6.794,0,12.302,5.508,12.302,12.302c0,6.794-5.508,12.302-12.302,12.302
			c-4.717,0-8.814-2.655-10.879-6.552"/>
		<path style="fill:none;stroke:#263238;stroke-miterlimit:10;" d="M108.259,136.315c-0.059-0.489-0.09-0.987-0.09-1.492
			c0-6.794,5.508-12.302,12.302-12.302c6.794,0,12.302,5.508,12.302,12.302s-5.508,12.302-12.302,12.302
			c-4.717,0-8.814-2.655-10.878-6.552"/>
		<path style="fill:none;stroke:#263238;stroke-miterlimit:10;" d="M58.272,177.096c0-3.191,2.587-5.778,5.778-5.778
			c3.191,0,5.778,2.587,5.778,5.778c0,3.191-2.587,5.778-5.778,5.778C60.859,182.875,58.272,180.288,58.272,177.096z"/>
		<path style="fill:none;stroke:#263238;stroke-miterlimit:10;" d="M58.196,138.113c-3.303-0.862-6.327-2.413-8.909-4.492"/>
		<path style="fill:none;stroke:#263238;stroke-miterlimit:10;" d="M80.342,97.422c4.765,4.362,7.754,10.634,7.754,17.604
			c0,13.177-10.682,23.859-23.859,23.859c-0.462,0-0.921-0.013-1.376-0.039"/>
	</g>
</g>
<g id="Character_2">
	<g>
		<g>
			<path style="fill:#FFFFFF;stroke:#263238;stroke-linecap:round;stroke-linejoin:round;stroke-miterlimit:10;" d="M385.189,209.45
				c0,0-0.515,2.02-0.515,8.249c0,6.229,1.683,13.943,3.63,13.943c1.947,0,7.398-0.779,7.398-0.779l1.168,4.283l17.131-3.893
				l-1.168-7.008c0,0-2.725-7.787-9.734-12.848S385.578,204.388,385.189,209.45z"/>
			<path style="fill:#263238;stroke:#263238;stroke-linecap:round;stroke-linejoin:round;stroke-miterlimit:10;" d="M390.25,189.593
				c0,0-1.168,3.893-4.283,3.893c-3.115,0-5.84-1.947-7.787,3.894c-1.947,5.84,3.893,7.008,3.893,10.123
				c0,3.115,0.389,3.504,2.725,4.283c2.336,0.779,4.672,3.115,4.672,3.115s-2.336,2.725,0,4.672
				c2.336,1.947,3.893,2.725,3.893,2.725s-1.168,2.725-0.389,4.283c0.779,1.557,5.451,2.336,7.008,2.336s5.061-1.557,6.23-0.779
				c1.168,0.779,4.283,1.557,5.062,0c0.779-1.557,4.283-0.389,6.23-1.168c1.947-0.779,3.893-4.672,1.947-6.619
				c-1.947-1.947-0.389-4.672,0.779-7.787c1.168-3.115,1.947-11.291-0.779-17.521c-2.725-6.229-5.451-8.955-9.734-8.955
				s-6.619,1.168-6.619,1.168s-2.336-0.389-5.84-0.389S391.808,188.425,390.25,189.593z"/>
		</g>
		<g>
			<g>
				<path style="fill:#263238;stroke:#263238;stroke-linecap:round;stroke-linejoin:round;stroke-miterlimit:10;" d="M373,437.542
					c0,0-5.667,7-12,10c-6.333,3-4.667,4.333-2.333,5.667c2.333,1.333,30,4.667,32,0.667S388,441.542,388,441.542L373,437.542z"/>
				<path style="fill:#FFFFFF;stroke:#263238;stroke-linecap:round;stroke-linejoin:round;stroke-miterlimit:10;" d="
					M390.667,453.875c0.386-0.772,0.52-1.708,0.49-2.712c-3.964,1.164-10.909,2.277-18.824,1.712
					c-6.398-0.457-12.167-2.01-15.165-2.942c-1.383,1.448-0.1,2.362,1.498,3.275C361,454.542,388.667,457.875,390.667,453.875z"/>
			</g>
			<g>
				<path style="fill:#263238;stroke:#263238;stroke-linecap:round;stroke-linejoin:round;stroke-miterlimit:10;" d="M419,436.875
					c0,0-2.333,4.333-5.667,7c-3.333,2.667-2.333,5,0.333,5.667c2.667,0.667,6.667,3.333,11,3.667c4.333,0.333,6,1.333,8-2.333
					c2-3.667-0.333-10-0.333-10L419,436.875z"/>
				<path style="fill:#FFFFFF;stroke:#263238;stroke-linecap:round;stroke-linejoin:round;stroke-miterlimit:10;" d="
					M432.667,450.875c0.166-0.305,0.293-0.633,0.403-0.97c-3.438,1.951-6.585,0.944-13.07-1.03c-4.395-1.338-6.813-2.673-8.08-3.571
					c-1.493,2.039-0.429,3.694,1.747,4.238c2.667,0.667,6.667,3.333,11,3.667C429,453.542,430.667,454.542,432.667,450.875z"/>
			</g>
			<path style="fill:#FFFFFF;stroke:#263238;stroke-linecap:round;stroke-linejoin:round;stroke-miterlimit:10;" d="
				M392.667,295.542c0,0-13.667,51.667-16.667,62c-3,10.333-2,24.667-1.333,29c0.667,4.333,0,48.667,0,48.667l-3.333,1.333v2.333
				c0,0,4.333,4,9.667,6.667c5.333,2.667,10.333,1.667,10.333,1.667s-0.333-13.333,0-16.667c0.333-3.333,9-50.333,9-50.333
				L408,361.542c0,0-2.333,18-0.667,27c1.667,9,10.667,43.667,10.667,43.667s-1,4-0.333,5c0.667,1,10.333,5,13.333,6
				s3-3.667,2.667-6c-0.333-2.333-2.667-12.667-2.667-15c0-2.333-0.667-74.667,0.667-80c1.333-5.333,5.333-20.333,4-26.667
				c-1.333-6.333-9.333-23.333-9.333-23.333L392.667,295.542z"/>
			
				<line style="fill:none;stroke:#263238;stroke-linecap:round;stroke-linejoin:round;stroke-miterlimit:10;" x1="420.859" y1="338.287" x2="423.667" y2="333.208"/>
			
				<line style="fill:none;stroke:#263238;stroke-linecap:round;stroke-linejoin:round;stroke-miterlimit:10;" x1="408" y1="361.542" x2="418.878" y2="341.87"/>
			<path style="fill:none;stroke:#263238;stroke-linecap:round;stroke-linejoin:round;stroke-miterlimit:10;" d="M419.056,378.552
				c1.34,1.573,2.681,3.06,3.944,4.323"/>
			<path style="fill:none;stroke:#263238;stroke-linecap:round;stroke-linejoin:round;stroke-miterlimit:10;" d="M408.333,364.542
				c0,0,4.492,6.469,9.387,12.415"/>
			<path style="fill:none;stroke:#263238;stroke-linecap:round;stroke-linejoin:round;stroke-miterlimit:10;" d="M420.807,397.051
				c0.943,1.344,1.902,2.532,2.86,3.49"/>
			<path style="fill:none;stroke:#263238;stroke-linecap:round;stroke-linejoin:round;stroke-miterlimit:10;" d="M408.333,370.542
				c0,0,4.93,14.36,10.836,24.003"/>
			<path style="fill:none;stroke:#263238;stroke-linecap:round;stroke-linejoin:round;stroke-miterlimit:10;" d="M381.193,401.36
				c-2.416,2.285-4.193,3.515-4.193,3.515"/>
			<path style="fill:none;stroke:#263238;stroke-linecap:round;stroke-linejoin:round;stroke-miterlimit:10;" d="M402.333,368.208
				c0,0-12.333,23-16.667,28.333c-0.467,0.574-0.933,1.122-1.395,1.641"/>
			<path style="fill:none;stroke:#263238;stroke-linecap:round;stroke-linejoin:round;stroke-miterlimit:10;" d="M385.723,410.087
				c-0.674,0.742-1.365,1.363-2.056,1.788"/>
			<path style="fill:none;stroke:#263238;stroke-linecap:round;stroke-linejoin:round;stroke-miterlimit:10;" d="M392.333,398.875
				c0,0-2.074,4.945-4.787,8.876"/>
		</g>
		<g>
			<path style="fill:#FFFFFF;stroke:#263238;stroke-linecap:round;stroke-linejoin:round;stroke-miterlimit:10;" d="
				M451.565,252.542c0,0,13.55,10.539,15.916,12.475c2.366,1.936-3.656,4.947-6.022,6.453c-1.417,0.902-27.424,17.299-28.499,19.235
				c-1.075,1.936,0.301,6.677,0.301,7.537c0,0.86-1.039,1.522-0.74,3.993c0.137,1.132,0.911,3.845-0.164,3.845
				c-1.076,0-1.986-2.555-3.492-6.426c-1.506-3.872-3.226-8.603-3.226-10.109c0-1.506,22.701-21.087,22.701-21.087l-6.022-5.162
				L451.565,252.542z"/>
			<path style="fill:none;stroke:#263238;stroke-linecap:round;stroke-linejoin:round;stroke-miterlimit:10;" d="M448.339,268.458
				c0,0,6.022,0.645,10.324-0.645"/>
		</g>
		<g>
			<path style="fill:#92E3A9;stroke:#263238;stroke-linecap:round;stroke-linejoin:round;stroke-miterlimit:10;" d="
				M405.537,230.389c0,0-7.958,2.796-12.045,6.452c-4.087,3.656-9.248,5.377-8.603,11.399c0.645,6.022,6.237,47.318,6.237,47.318
				s5.807,3.226,16.561,1.936c10.754-1.29,18.497-3.871,18.497-3.871l7.098-33.983l9.249,6.022c0,0,7.098-4.302,9.033-7.958
				c1.936-3.656,2.151-4.517,2.151-4.517s-13.335-9.894-18.282-14.41c-4.947-4.517-9.679-6.668-15.486-7.958
				C414.141,229.529,410.484,228.883,405.537,230.389z"/>
			<g>
				<g>
					<path style="fill:none;stroke:#263238;stroke-linecap:round;stroke-linejoin:round;stroke-miterlimit:10;" d="M412.514,270.829
						c-0.527,1.513-1.01,2.921-1.411,4.124"/>
					<path style="fill:none;stroke:#263238;stroke-linecap:round;stroke-linejoin:round;stroke-miterlimit:10;" d="M419.121,252.442
						c0,0-2.908,7.916-5.45,15.095"/>
					
						<line style="fill:none;stroke:#263238;stroke-linecap:round;stroke-linejoin:round;stroke-miterlimit:10;" x1="415.728" y1="268.786" x2="410.178" y2="281.429"/>
				</g>
				<polyline style="fill:none;stroke:#263238;stroke-linecap:round;stroke-linejoin:round;stroke-miterlimit:10;" points="
					436.079,248.241 433.283,259.64 439.95,248.241 				"/>
			</g>
		</g>
		<g>
			<path style="fill:#263238;stroke:#263238;stroke-linecap:round;stroke-linejoin:round;stroke-miterlimit:10;" d="
				M408.917,297.375l-37.75-2.25c0,0-6,31-6,34.75s19,8.25,30.5,8.25s20.5-6.25,20.75-7.75S408.917,297.375,408.917,297.375z"/>
			<path style="fill:#263238;stroke:#263238;stroke-linecap:round;stroke-linejoin:round;stroke-miterlimit:10;" d="
				M391.333,238.875c0,0,3-1.667,7.333,14.667c4.333,16.333,9.021,43.953,9.021,43.953l-2.021,0.381l-12-54
				c0,0-0.927-1.963-1.563-3.128s-2.331-1.165-2.331-1.165L391.333,238.875z"/>
			<polygon style="fill:#263238;stroke:#263238;stroke-linecap:round;stroke-linejoin:round;stroke-miterlimit:10;" points="
				382.667,256.875 372.917,295.625 375.917,295.375 383.417,258.125 			"/>
		</g>
		<g>
			<path style="fill:#FFFFFF;stroke:#263238;stroke-linecap:round;stroke-linejoin:round;stroke-miterlimit:10;" d="
				M386.395,282.654l-0.43,2.366l-3.226-2.366c0,0-0.43-3.441-0.645-4.732c-0.215-1.29-3.011-1.721-4.086-2.151
				c-1.075-0.43-5.807-0.86-5.807,0.645c0,1.506,0,2.151,0,2.151s-1.075,4.517-0.215,6.022c0.86,1.506,2.581,1.936,3.656,2.581
				c1.075,0.645,3.656,1.075,3.656,1.075s5.807,5.377,10.109,8.603c4.302,3.226,8.173,5.162,9.679,2.151
				c1.506-3.011,0-21.938,0-21.938l-12.905,3.226L386.395,282.654z"/>
			
				<line style="fill:none;stroke:#263238;stroke-linecap:round;stroke-linejoin:round;stroke-miterlimit:10;" x1="385.965" y1="285.02" x2="386.623" y2="289.932"/>
		</g>
		<path style="fill:#92E3A9;stroke:#263238;stroke-linecap:round;stroke-linejoin:round;stroke-miterlimit:10;" d="M395.428,247.811
			l7.098,29.896c0,0-5.592,5.377-10.109,5.807c-4.517,0.43-7.743-0.215-7.743-0.215s-4.517-29.466-2.796-35.273
			c1.721-5.807,8.173-7.743,8.173-7.743"/>
	</g>
</g>
<g id="Character_1">
	<g>
		<g>
			<path style="fill:#FFFFFF;stroke:#263238;stroke-linecap:round;stroke-linejoin:round;stroke-miterlimit:10;" d="M304.75,441.792
				c0,0-2.5,6.75-4.5,8.25s-0.25,3.5,2,4s4.5,0.5,4.5,0.5s7.5,2,11.25,1.5s4.75-2.25,4.75-6s-1.25-8.25-1.25-8.25H304.75z"/>
			<path style="fill:#FFFFFF;stroke:#263238;stroke-linecap:round;stroke-linejoin:round;stroke-miterlimit:10;" d="M317.25,452.792
				c-3.5,1.25-11-1-11-1s-2.5,0-4.5,0c-0.926,0-1.736-0.269-2.348-0.557c-0.241,1.217,1.163,2.433,2.848,2.807
				c2.25,0.5,4.5,0.5,4.5,0.5s7.5,2,11.25,1.5c3.474-0.463,4.586-2.002,4.731-5.207C321.244,451.487,319.509,451.985,317.25,452.792
				z"/>
		</g>
		<path style="fill:#FFFFFF;stroke:#263238;stroke-linecap:round;stroke-linejoin:round;stroke-miterlimit:10;" d="M291.929,191.05
			c0,0-7.155,0.511-10.732,3.833c-3.577,3.322-4.855,10.477-4.855,13.543c0,3.066,2.044,10.221,2.555,11.243
			c0.511,1.022,7.155,2.3,9.966,2.555c2.811,0.256,11.499-1.278,12.521-2.3s4.344-7.155,3.577-14.054
			c-0.767-6.899-2.811-10.221-6.133-12.521C295.506,191.05,291.929,191.05,291.929,191.05z"/>
		<path style="fill:#FFFFFF;stroke:#263238;stroke-linecap:round;stroke-linejoin:round;stroke-miterlimit:10;" d="M304.96,205.871
			c-0.249-2.237-0.634-4.094-1.151-5.666c-0.052,0.109-0.098,0.213-0.126,0.3c-0.255,0.766-1.022,2.3-1.022,2.3l-1.789,2.555
			l-0.256,1.533l-1.022-1.278l-1.533,1.533l-3.066,1.533l-0.256-1.789l-2.3,2.044l-0.767-1.789l-2.044,1.022l-1.278-1.789
			l-1.022,2.555l-2.044-1.022l-2.811-3.833l-1.022,3.322c0,0-3.066-2.555-4.089-4.344c-0.079-0.139-0.135-0.282-0.18-0.426
			c-0.59,2.274-0.842,4.434-0.842,5.792c0,3.066,2.044,10.221,2.555,11.243c0.511,1.022,7.155,2.3,9.966,2.555
			c2.811,0.256,11.499-1.278,12.521-2.3S305.727,212.77,304.96,205.871z"/>
		<path style="fill:none;stroke:#263238;stroke-linecap:round;stroke-linejoin:round;stroke-miterlimit:10;" d="M276.342,208.426
			c0,0-2.044-0.255-2.044,1.533s0.511,5.877,1.533,6.388c1.022,0.511,2.3,0,2.3,0L276.342,208.426z"/>
		<path style="fill:none;stroke:#263238;stroke-linecap:round;stroke-linejoin:round;stroke-miterlimit:10;" d="M305.471,208.171
			c0,0,1.278-0.256,1.533,0.767c0.255,1.022-1.022,4.855-1.278,5.877c-0.255,1.022-2.3,1.789-2.3,1.789L305.471,208.171z"/>
		<path style="fill:#A6A6A6;stroke:#263238;stroke-linecap:round;stroke-linejoin:round;stroke-miterlimit:10;" d="M272.764,226.568
			c0,0,1.278-5.877,8.688-7.666c7.41-1.789,13.798-1.533,16.865-0.256c3.066,1.278,5.8,2.835,6.388,4.599
			c0.256,0.767,1.789,2.811,1.789,2.811s-9.965-1.789-18.653-1.789C279.152,224.269,272.764,226.568,272.764,226.568z"/>
		<g>
			<path style="fill:#FFFFFF;stroke:#263238;stroke-linecap:round;stroke-linejoin:round;stroke-miterlimit:10;" d="M265.75,442.042
				c0,0-4,4.5-6.5,7s-7,4.75-6.5,6.25s-0.927,1.059,4.75,3c6.904,2.361,20.938,3.142,23.25,0.75c2.1-2.172-0.75-16-0.75-16
				L265.75,442.042z"/>
			<path style="fill:#FFFFFF;stroke:#263238;stroke-linecap:round;stroke-linejoin:round;stroke-miterlimit:10;" d="M280.75,459.042
				c0.529-0.548,0.744-1.838,0.769-3.46c-3.234,0.987-8.746,2.277-14.769,1.96c-7.149-0.376-11.748-2.451-13.587-3.454
				c-0.36,0.44-0.533,0.844-0.413,1.204c0.5,1.5-0.927,1.059,4.75,3C264.404,460.652,278.438,461.434,280.75,459.042z"/>
		</g>
		<path style="fill:#263238;stroke:#263238;stroke-linecap:round;stroke-linejoin:round;stroke-miterlimit:10;" d="M255.25,328.292
			c0,0,3,33,5.5,40s3.75,19,3.75,20.75s-0.25,8,0.5,10.75s1,6,0.75,8.5s-2,8-1.5,11s2.5,7.5,2.5,7.5s-3.25,3.75-3,6.25
			s0.25,10,0.25,10s2.75,3.25,7,4.25s11-2.25,11-2.25l0.25-5.75c0,0,2-3.25,2.5-6.5s-1-6.5-1-8.5s1-11.5,1-12.5s1.75-7,1.75-10.25
			s-0.75-7.25,0-10.5s3.5-21,3.5-25.25s-0.25-10.25,0.25-11.75s1.5-7,1.5-7s3.75,27,6,33s5.25,17.5,5.75,19s2.25,23.25,2.5,26.25
			s0.25,6,0,6.75s-2.5,3.25-2.25,5.5s1,6.5,1,6.5s6.75,5,10.5,4.5s8-3.5,8.25-4.75s-0.25-10,0.25-14.25s0-27.5-0.5-35
			s0-9.25-1.25-19.25s-1.5-22.25-1.75-27s-0.25-17.25-0.25-17.25s-24.5,1.5-35.75,1S255.25,328.292,255.25,328.292z"/>
		<g>
			<path style="fill:#A6A6A6;stroke:#263238;stroke-linecap:round;stroke-linejoin:round;stroke-miterlimit:10;" d="
				M328.469,240.622c0,0,9.449,12.257,13.029,22.997c3.58,10.74,4.957,21.479,3.58,25.059s-21.479,20.378-21.479,20.378
				l-1.928-17.899l6.609-8.261l-6.058-12.392L328.469,240.622z"/>
			<path style="fill:#263238;stroke:#263238;stroke-linecap:round;stroke-linejoin:round;stroke-miterlimit:10;" d="
				M345.077,288.678c0.044-0.113,0.077-0.254,0.115-0.382c-1.862,0.796-4.417,1.459-7.55,1.208
				c-6.884-0.551-9.363-5.508-9.363-5.508l-0.674-0.259l-5.935,7.419l1.928,17.899C323.598,309.056,343.701,292.258,345.077,288.678
				z"/>
			<path style="fill:none;stroke:#263238;stroke-linecap:round;stroke-linejoin:round;stroke-miterlimit:10;" d="M339.627,284.108
				c0.851-0.239,1.75-0.547,2.696-0.937"/>
			<path style="fill:none;stroke:#263238;stroke-linecap:round;stroke-linejoin:round;stroke-miterlimit:10;" d="M328.279,282.895
				c0,0,2.932,2.587,8.796,1.755"/>
			<path style="fill:none;stroke:#263238;stroke-linecap:round;stroke-linejoin:round;stroke-miterlimit:10;" d="M326.903,280.142
				c0,0,8.812,1.377,14.87-4.406"/>
		</g>
		<g>
			<path style="fill:#A6A6A6;stroke:#263238;stroke-linecap:round;stroke-linejoin:round;stroke-miterlimit:10;" d="
				M273.786,225.802c0,0-24.019,11.754-24.275,14.82c-0.256,3.066,5.877,38.329,7.155,41.14c1.278,2.811-3.833,21.975-3.833,29.641
				c0,7.666-1.278,17.887-0.511,19.165c0.767,1.278,12.521,5.11,21.464,6.133c8.943,1.022,15.843-1.022,21.209,0
				c5.366,1.022,19.164-0.767,22.742-1.278c3.577-0.511,7.41-3.833,7.41-3.833l-3.066-47.528c0,0,5.621-40.884,6.388-43.439
				s-6.388-7.41-10.221-8.943c-3.833-1.533-13.543-5.877-13.543-5.877S290.651,219.669,273.786,225.802z"/>
			<path style="fill:none;stroke:#263238;stroke-linecap:round;stroke-linejoin:round;stroke-miterlimit:10;" d="M283.935,259.745
				c-1.942,3.522-4.654,7.768-7.685,10.547"/>
			<path style="fill:none;stroke:#263238;stroke-linecap:round;stroke-linejoin:round;stroke-miterlimit:10;" d="M287,253.542
				c0,0-0.397,0.941-1.108,2.412"/>
			<path style="fill:none;stroke:#263238;stroke-linecap:round;stroke-linejoin:round;stroke-miterlimit:10;" d="M283,266.792
				c0,0-6.75,6.25-9,8.75"/>
			<path style="fill:none;stroke:#263238;stroke-linecap:round;stroke-linejoin:round;stroke-miterlimit:10;" d="M299.5,265.542
				c0,0,6.75,10.75,10.75,13.75"/>
			<path style="fill:none;stroke:#263238;stroke-linecap:round;stroke-linejoin:round;stroke-miterlimit:10;" d="M301.25,273.292
				c0,0,5.75,6,8,7.5"/>
		</g>
		<g>
			<g>
				<path style="fill:#FFFFFF;stroke:#263238;stroke-linecap:round;stroke-linejoin:round;stroke-miterlimit:10;" d="
					M287.329,291.472c0,0,7.155-2.811,9.454-3.833c2.3-1.022,4.599,0,6.388,0.767s4.855,1.789,4.855,4.855
					c0,3.066-2.3,9.966-4.344,10.477c-2.044,0.511-6.644-0.256-10.732-1.789c-4.088-1.533-5.621-2.3-5.621-2.3V291.472z"/>
				<path style="fill:none;stroke:#263238;stroke-linecap:round;stroke-linejoin:round;stroke-miterlimit:10;" d="M302.15,289.428
					l-2.044,12.01c0,0,1.022,1.789,3.577,2.3"/>
				
					<line style="fill:none;stroke:#263238;stroke-linecap:round;stroke-linejoin:round;stroke-miterlimit:10;" x1="300.577" y1="298.293" x2="306.086" y2="300.336"/>
				<path style="fill:none;stroke:#263238;stroke-linecap:round;stroke-linejoin:round;stroke-miterlimit:10;" d="M301.466,294.383
					c0,0,5.509,2.488,5.776,2.488"/>
				
					<line style="fill:none;stroke:#263238;stroke-linecap:round;stroke-linejoin:round;stroke-miterlimit:10;" x1="301.91" y1="290.562" x2="308.027" y2="293.261"/>
				<path style="fill:#FFFFFF;stroke:#263238;stroke-linecap:round;stroke-linejoin:round;stroke-miterlimit:10;" d="
					M290.18,290.828c0,0,3.554-2.488,6.042-4.265c2.488-1.777,5.332-1.244,6.042-0.978c0.711,0.267,3.466,2.755,4.532,3.199
					c1.066,0.444,2.932-0.267,2.399,1.155c-0.533,1.422-2.932,1.333-3.91,1.066c-0.977-0.267-3.999-0.8-3.999-0.8
					s-0.178,3.554-2.399,4.621c-2.221,1.066-5.332,0.978-5.332,0.978"/>
			</g>
			<path style="fill:#A6A6A6;stroke:#263238;stroke-linecap:round;stroke-linejoin:round;stroke-miterlimit:10;" d="
				M249.511,240.622c0,0-6.644,22.742-7.666,33.474c-1.022,10.732-4.088,12.521-1.533,16.098
				c2.555,3.577,16.354,9.199,25.042,10.988c9.11,1.876,22.486,1.789,22.486,1.789l1.278-12.776c0,0-11.499-4.855-16.865-7.666
				c-5.366-2.811-14.82-7.41-14.82-7.41l-6.388-25.808L249.511,240.622z"/>
			<path style="fill:none;stroke:#263238;stroke-linecap:round;stroke-linejoin:round;stroke-miterlimit:10;" d="M250.023,283.102
				c-0.475,2.017-0.767,2.748-0.767,2.748"/>
			<path style="fill:none;stroke:#263238;stroke-linecap:round;stroke-linejoin:round;stroke-miterlimit:10;" d="M245.423,281.251
				c0,0,2.811-5.877,5.366-7.666c2.555-1.789,6.644,1.533,6.644,1.533s-4.752,1.386-6.413,4.332"/>
			<path style="fill:none;stroke:#263238;stroke-linecap:round;stroke-linejoin:round;stroke-miterlimit:10;" d="M255.644,271.03
				c0,0-2.811-3.833-5.111-3.833c-2.3,0-5.622,0-5.622,0"/>
		</g>
	</g>
</g>
</svg>
